<svg xmlns="http://www.w3.org/2000/svg" id="design" viewBox="0 0 124 124"><defs><style>.cls-1,.cls-11,.cls-12,.cls-9{fill:none;}.cls-2{fill:#7599ba;}.cls-3{clip-path:url(#clip-path);}.cls-4{clip-path:url(#clip-path-2);}.cls-5{fill:#4c79a5;}.cls-6{fill:#ffbe57;}.cls-7{fill:#714b3c;}.cls-8{fill:#d90a17;}.cls-11,.cls-9{stroke:#292929;stroke-linecap:round;stroke-width:1.98px;}.cls-9{stroke-linejoin:round;}.cls-10{fill:#292929;}.cls-11,.cls-12{stroke-miterlimit:10;}.cls-12{stroke:#4c79a5;stroke-width:1.96px;}.cls-13{fill:#9abed8;}.cls-14{fill:#ff9d00;}</style><clipPath id="clip-path"><path d="M0 0h124v124H0z" class="cls-1"/></clipPath><clipPath id="clip-path-2"><circle cx="62" cy="62" r="55" class="cls-2"/></clipPath></defs><g class="cls-3"><circle cx="62" cy="62" r="55" class="cls-2"/><path d="M0 .33h124V62H0z" class="cls-4 cls-5"/><path d="M94 63.2a32 32 0 1 1-64 0q0-1 .06-1.9a31.81 31.81 0 0 1 6.06-16.87q.4-.56.83-1.09a32.44 32.44 0 0 1 2.45-2.75A32 32 0 0 1 94 63.2z" class="cls-6"/><path d="M60.74 53.77l-2.83-4.43-1.64-2.57H45.83l14.91 7zM40.86 46.77L30.25 67.41A31.86 31.86 0 0 1 30 63.2q0-1 .06-1.9a31.81 31.81 0 0 1 6.06-16.87zM83.13 46.77l10.61 20.64A31.86 31.86 0 0 0 94 63.2q0-1-.06-1.9a31.81 31.81 0 0 0-6.04-16.87z" class="cls-7"/><path d="M62 31.17a32.1 32.1 0 0 0-28 16.49h56a32.1 32.1 0 0 0-28-16.49z" class="cls-8"/><rect width="17.42" height="5.21" x="53.29" y="39.42" class="cls-7" rx="2.26" ry="2.26"/><path d="M74.59 51.52l-3.85-6.01-2.22-3.49H54.36l20.23 9.5z" class="cls-7"/><path d="M44.6 57.36a10.11 10.11 0 0 1 9.4-2.62" class="cls-9"/><circle cx="51.01" cy="66.63" r="3.03" class="cls-10"/><path d="M70 67.7a3 3 0 0 1 6.05 0z" class="cls-10"/><path d="M77.09 80.2a9.94 9.94 0 0 0-13.58 3.7" class="cls-11"/><circle cx="73.26" cy="66.63" r="7.7" class="cls-12"/><circle cx="50.71" cy="66.63" r="7.7" class="cls-12"/><path d="M58.41 66.63h7.16" class="cls-12"/><path d="M68.38 54.78h10.56" class="cls-9"/><path d="M58 26.25V24.4a8.21 8.21 0 0 1 .95-4.2 13.45 13.45 0 0 1 3.68-3.85A15.71 15.71 0 0 0 66 13.23a4.42 4.42 0 0 0 .79-2.64 2.85 2.85 0 0 0-1.25-2.46 5.74 5.74 0 0 0-3.37-.79A19.26 19.26 0 0 0 53.69 10l-2.83-5.48a23.85 23.85 0 0 1 11.78-3.35 12.6 12.6 0 0 1 8.24 2.33A8.1 8.1 0 0 1 74 10a8.79 8.79 0 0 1-1.16 4.78 17.85 17.85 0 0 1-4.67 4.59 14.69 14.69 0 0 0-3 2.76 4.19 4.19 0 0 0-.59 2.44v1.5zm0 6.21a3.71 3.71 0 0 1 .94-2.83 4 4 0 0 1 2.88-1 3.92 3.92 0 0 1 2.86.92 3.7 3.7 0 0 1 1.06 2.77 3.7 3.7 0 0 1-1 2.77 3.85 3.85 0 0 1-2.81 1.06 4 4 0 0 1-2.93-.93 3.68 3.68 0 0 1-1-2.76zM77.71 31.21l.64-1.1A5.64 5.64 0 0 1 80.41 28 9.24 9.24 0 0 1 84 27a10.8 10.8 0 0 0 3.12-.61 3 3 0 0 0 1.41-1.27 2 2 0 0 0 .15-1.89 3.94 3.94 0 0 0-1.7-1.67A13.24 13.24 0 0 0 81 20.09l.28-4.2a16.4 16.4 0 0 1 8.11 2.25 8.66 8.66 0 0 1 4 4.31 5.57 5.57 0 0 1-.49 5 6 6 0 0 1-2.39 2.39 12.27 12.27 0 0 1-4.39 1 10.1 10.1 0 0 0-2.74.55 2.88 2.88 0 0 0-1.22 1.22l-.52.89zm-3 3.85a2.89 2.89 0 0 1 1.77-1.5 3.14 3.14 0 0 1 2.32.5 3.05 3.05 0 0 1 1.53 1.77 3.34 3.34 0 0 1-2.18 3.72 3 3 0 0 1-2.3-.44 3.09 3.09 0 0 1-1.55-1.79 2.87 2.87 0 0 1 .45-2.27zM42 33.56l-.76-.95a5.38 5.38 0 0 1-1.19-2.56 8.81 8.81 0 0 1 .37-3.47 10.29 10.29 0 0 0 .52-3 2.9 2.9 0 0 0-.65-1.69 1.87 1.87 0 0 0-1.63-.77 3.76 3.76 0 0 0-2.06.94 12.61 12.61 0 0 0-3.37 4.76l-3.64-1.68a15.62 15.62 0 0 1 4.77-6.45 8.25 8.25 0 0 1 5.21-2.09 5.3 5.3 0 0 1 4.26 2.13 5.76 5.76 0 0 1 1.31 2.94 11.69 11.69 0 0 1-.58 4.25 9.62 9.62 0 0 0-.45 2.63 2.75 2.75 0 0 0 .67 1.5l.62.77zm2.39 4.26a2.75 2.75 0 0 1-.73-2.09 3 3 0 0 1 1.23-1.89 2.91 2.91 0 0 1 2.1-.76 3.19 3.19 0 0 1 2.56 3.21 2.86 2.86 0 0 1-1.17 1.9 2.94 2.94 0 0 1-2.08.81 2.73 2.73 0 0 1-1.87-1.18z" class="cls-13"/><path d="M90.33 102.72a11.31 11.31 0 1 1-19.52 11.44z" class="cls-6"/><rect width="19.73" height="6.99" x="67.28" y="100.75" class="cls-6" rx="3.49" ry="3.49" transform="rotate(59.64 77.14 104.24)"/><rect width="16.16" height="6.99" x="63.34" y="104.8" class="cls-6" rx="3.49" ry="3.49" transform="rotate(59.34 71.48 108.99)"/><path d="M95.252 102.767l-5.158 5.61a3.28 3.28 0 0 1-4.634.193l-.545-.5a3.28 3.28 0 0 1-.194-4.635l5.158-5.61a3.65 3.65 0 0 1 5.128-.242 3.65 3.65 0 0 1 .217 5.157z" class="cls-6"/><path d="M91.56 111.11l-4.62-3.54 8.61-5.18c-2.55 3.88-2.8 3.61-3.99 8.72z" class="cls-6"/><path d="M87.12 117.5c-4.66 2.73-11.69.5-14.16-3.7l-1.74 1.08a10.48 10.48 0 0 0 14.34 3.75zM75.58 104.43l-4.51-7.7a3.49 3.49 0 0 0-.16 3.78l1.87 3.19a2 2 0 0 0 2.8.73z" class="cls-14"/><path d="M73.59 114.86l-1-1.76-6.31-10.77a3.49 3.49 0 0 0-.16 3.78l4.71 8a2 2 0 0 0 2.76.75z" class="cls-14"/><rect width="28.27" height="6.99" x="66.85" y="93.56" class="cls-6" rx="3.49" ry="3.49" transform="rotate(59.64 80.98 97.05)"/><path d="M81.57 100.92l-8.82-15.06a3.49 3.49 0 0 0-.16 3.78l6.18 10.56a2 2 0 0 0 2.8.72z" class="cls-14"/></g></svg>