<svg xmlns="http://www.w3.org/2000/svg" id="design" viewBox="0 0 124 124"><defs><style>.cls-1,.cls-10,.cls-12,.cls-13,.cls-8{fill:none;}.cls-2{fill:#315984;}.cls-3{clip-path:url(#clip-path);}.cls-4{clip-path:url(#clip-path-2);}.cls-5{fill:#4c79a5;}.cls-6{fill:#4f4947;}.cls-7{fill:#ffbe57;}.cls-10,.cls-8{stroke:#292929;}.cls-10,.cls-12,.cls-13,.cls-8{stroke-linecap:round;}.cls-8{stroke-linejoin:round;stroke-width:1.57px;}.cls-9{fill:#292929;}.cls-10,.cls-12,.cls-13{stroke-miterlimit:10;}.cls-10{stroke-width:2.39px;}.cls-11{fill:#efefef;}.cls-12{stroke:#d90a17;}.cls-12,.cls-13{stroke-width:2px;}.cls-13{stroke:#8698a8;}.cls-14{fill:#ffd48f;}</style><clipPath id="clip-path"><path d="M0 0h124v124H0z" class="cls-1"/></clipPath><clipPath id="clip-path-2"><rect width="110" height="110" x="6.99" y="7" class="cls-2" rx="55" ry="55"/></clipPath></defs><g class="cls-3"><rect width="110" height="110" x="6.99" y="7" class="cls-2" rx="55" ry="55"/><g class="cls-4"><path d="M-.01 0h124v124h-124z" class="cls-5"/><path d="M85.07 17.42l-.2-.05C75.95 15 66.7 18.67 59 22.92a35.79 35.79 0 0 0-9.11 6.54c-7.62 8.22-6.14 20.51-10.7 30.4-1.83 4-4.61 7.51-6.56 11.42-2.9 5.84-3.76 12.92-.24 18.71 3.21 5.28 9.53 8.63 16 10.48a26.37 26.37 0 0 0 9.95 1.2A19.68 19.68 0 0 0 70.69 95c3.06-3.43 5-7.54 6.65-11.68 7.12-17.69 10.1-36.56 13-55.29.37-2.33.72-4.77-.16-7s-5.11-3.61-5.11-3.61z" class="cls-6"/><path d="M73 17.42c9-2.44 18.31 1.22 26.06 5.5a35.79 35.79 0 0 1 9.11 6.54c7.62 8.22 6.14 20.51 10.7 30.4 1.83 4 4.61 7.51 6.56 11.42 2.9 5.84 3.76 12.92.24 18.71-3.21 5.28-9.53 8.63-16 10.48a26.37 26.37 0 0 1-9.95 1.2A19.68 19.68 0 0 1 87.4 95c-3.06-3.43-5-7.54-6.65-11.68-7.12-17.69-10.1-36.56-13-55.29-.37-2.33-.72-4.77.16-7S73 17.42 73 17.42z" class="cls-6"/><path id="_Path_" d="M113.63 50.76a35.6 35.6 0 1 1-71.19 0q0-1.06.06-2.11a35.36 35.36 0 0 1 6.74-18.75q.45-.62.93-1.22a36.06 36.06 0 0 1 2.73-3.06 35.6 35.6 0 0 1 60.73 25.14z" data-name="&lt;Path&gt;" class="cls-6"/><path id="_Path_2" d="M110.21 50.75a32.19 32.19 0 1 1-64.38 0q0-1 .06-1.91a32 32 0 0 1 6.1-17q.41-.56.84-1.1A32.61 32.61 0 0 1 55.29 28a32.19 32.19 0 0 1 54.93 22.73z" data-name="&lt;Path&gt;" class="cls-7"/><path d="M58.13 30.81C58.35 35.4 57.54 46 45.33 46a33.18 33.18 0 0 1 56.32-18.49 33.65 33.65 0 0 1 2.55 2.86q.44.56.86 1.14a33.39 33.39 0 0 1 2.8 4.59c-7 5.69-36.64 3.89-48.41-5.92a.81.81 0 0 0-1.32.63z" class="cls-6"/><path d="M62.89 43.76a8.44 8.44 0 0 1 8.18 0M93.15 43.76a8.44 8.44 0 0 0-8.18 0" class="cls-8"/><circle cx="66.98" cy="51.08" r="3.04" class="cls-9"/><circle cx="89.06" cy="51.08" r="3.04" class="cls-9"/><path d="M71.7 62.47h12.64" class="cls-10"/><path d="M-.01 93.35h124v30.85h-124z" class="cls-2"/></g><path d="M82.68 73H41.45a.8.8 0 0 0-.79.67l-7.07 42.62a.8.8 0 0 0 .79.93h55.37a.8.8 0 0 0 .79-.93l-7.08-42.64a.8.8 0 0 0-.78-.65z" class="cls-11"/><path d="M83.32 104.26c.5 3-1.8 5.46-5.13 5.52s-6.44-2.32-6.93-5.3S73.06 99 76.39 99s6.43 2.27 6.93 5.26z" class="cls-12"/><path d="M78.93 105.83a2 2 0 0 1-1.15.37 2.39 2.39 0 0 1-2.4-1.83 1.67 1.67 0 0 1 1.77-1.91 2.51 2.51 0 0 1 1.29.34" class="cls-12"/><path d="M45.79 81.64h32.55M44.67 88.15h34.79M43.55 94.67h37.02M42.68 101.18h22.54M41.59 107.69h23.88" class="cls-13"/><rect width="12.61" height="7.36" x="56.47" y="67.43" class="cls-14" rx="3.68" ry="3.68" transform="rotate(90 62.77 71.11)"/><rect width="7.36" height="12.61" x="52.74" y="64.8" class="cls-14" rx="3.68" ry="3.68"/><rect width="10.65" height="7.36" x="44.94" y="68.94" class="cls-14" rx="3.68" ry="3.68" transform="rotate(90 50.26 72.62)"/><path d="M54.89 73.63v-8.5a3.68 3.68 0 0 0-2.15 3.34v5.27a3.68 3.68 0 0 0 3.68 3.68s-1.53-1.01-1.53-3.79zM61.25 73.75v-8.62a3.68 3.68 0 0 0-2.15 3.34v5.27a3.68 3.68 0 0 0 3.68 3.68s-1.53-.9-1.53-3.67zM48.74 74.28v-6.62A3.68 3.68 0 0 0 46.58 71v3.27a3.68 3.68 0 0 0 3.68 3.68s-1.52-.9-1.52-3.67z" class="cls-7"/></g></svg>