<svg xmlns="http://www.w3.org/2000/svg" id="design" viewBox="0 0 124 124"><defs><style>.cls-1,.cls-12,.cls-13,.cls-16,.cls-17{fill:none;}.cls-2{fill:#68a4a5;}.cls-3{fill:#ff9d00;}.cls-4{fill:#474747;}.cls-5{clip-path:url(#clip-path);}.cls-6{clip-path:url(#clip-path-2);}.cls-7{fill:#408289;}.cls-8{clip-path:url(#clip-path-3);}.cls-9{fill:#ffbe57;}.cls-10{clip-path:url(#clip-path-4);}.cls-11{fill:#939393;}.cls-12,.cls-13{stroke:#292929;}.cls-12,.cls-13,.cls-16,.cls-17{stroke-linecap:round;}.cls-12,.cls-16,.cls-17{stroke-linejoin:round;}.cls-12{stroke-width:1.68px;}.cls-13{stroke-miterlimit:10;stroke-width:2px;}.cls-14{fill:#ab6940;}.cls-15{fill:#efefef;}.cls-16,.cls-17{stroke:#d90a17;}.cls-16{stroke-width:2.53px;}.cls-17{stroke-width:2.64px;}</style><clipPath id="clip-path"><path d="M0 0h124v124H0z" class="cls-1"/></clipPath><clipPath id="clip-path-2"><circle cx="62" cy="62" r="55" class="cls-2"/></clipPath><clipPath id="clip-path-3"><circle cx="35.54" cy="78.6" r="27.62" class="cls-3"/></clipPath><clipPath id="clip-path-4"><path d="M48.19 75.32L48.13 72a.6.6 0 0 0-.61-.59l-17.79.35a.6.6 0 0 0-.59.61v.9a17.49 17.49 0 0 0-5.86-.38l.12-.74a.6.6 0 0 0-.5-.69L5.35 68.59a.6.6 0 0 0-.69.5l-.54 3.32A9.5 9.5 0 0 0 12 83.31a9.5 9.5 0 0 0 10.83-7.55 14.52 14.52 0 0 1 6.4.41A9.5 9.5 0 0 0 38.88 85a9.5 9.5 0 0 0 9.31-9.68z" class="cls-4"/></clipPath></defs><g class="cls-5"><circle cx="62" cy="62" r="55" class="cls-2"/><path d="M0 81.96h124v50.08H0z" class="cls-6 cls-7"/><circle cx="35.54" cy="78.6" r="27.62" class="cls-3"/><circle cx="25.61" cy="76.59" r="29.64" class="cls-8 cls-9"/><path d="M48.19 75.32L48.13 72a.6.6 0 0 0-.61-.59l-17.79.35a.6.6 0 0 0-.59.61v.9a17.49 17.49 0 0 0-5.86-.38l.12-.74a.6.6 0 0 0-.5-.69L5.35 68.59a.6.6 0 0 0-.69.5l-.54 3.32A9.5 9.5 0 0 0 12 83.31a9.5 9.5 0 0 0 10.83-7.55 14.52 14.52 0 0 1 6.4.41A9.5 9.5 0 0 0 38.88 85a9.5 9.5 0 0 0 9.31-9.68z" class="cls-4"/><g class="cls-10"><path d="M47.22 89.02h-7.2L31.7 69.3h7.2l8.32 19.72zM22.12 87.02h-7.2L6.6 67.3h7.2l8.32 19.72z" class="cls-11"/></g><path d="M32.67 68.33l9.16-2.6M20.74 67.65l-8.96-3.21" class="cls-12"/><path d="M29.33 90.11a7.44 7.44 0 0 0-10.52 0" class="cls-13"/><path d="M78.47 8.23l2.84-1.13a1.44 1.44 0 0 1 1.51.28l2.25 2.08a1.22 1.22 0 0 1 .37 1.13l-18 92.16a1.07 1.07 0 0 1-1.25.85l-3.9-.73a1.07 1.07 0 0 1-.86-1.24L77.71 9.15a1.22 1.22 0 0 1 .76-.92z" class="cls-14"/><rect width="56.88" height="40.33" x="49.28" y="15.68" class="cls-15" rx="1.79" ry="1.79" transform="rotate(10.61 77.68 35.8)"/><path d="M81 39.24a5.17 5.17 0 1 1 1-5.39" class="cls-16"/><circle cx="76.79" cy="35.67" r="12.07" class="cls-17" transform="rotate(-79.39 76.8 35.66)"/><path d="M72.34 78.27c5.54 1.27 8.92 7.12 7.56 13.06s-7 9.72-12.5 8.45z" class="cls-9"/><rect width="17.95" height="6.81" x="57.5" y="78.68" class="cls-9" rx="3.41" ry="3.41" transform="rotate(12.93 66.51 82.11)"/><rect width="17.95" height="6.81" x="55.97" y="85.32" class="cls-9" rx="3.41" ry="3.41" transform="rotate(12.93 64.98 88.77)"/><path d="M60.865 91.28l7.7 1.77a3.41 3.41 0 0 1 2.56 4.085l-.338 1.472a1.88 1.88 0 0 1-2.253 1.412l-9.19-2.112a3.41 3.41 0 0 1-2.56-4.086 3.41 3.41 0 0 1 4.08-2.54z" class="cls-9"/><path d="M80 90.27C78.79 95.4 72.85 99 68.54 98l-.4 2c5.13 1.18 10.31-2.33 11.58-7.83zM64.08 90l-7.91-1.82a3.17 3.17 0 0 0 2.37 2.59l3.28.75A1.93 1.93 0 0 0 64.08 90z" class="cls-3"/><path d="M69.64 98.24l-1.81-.42-11.07-2.53a3.17 3.17 0 0 0 2.37 2.59l9.25 2.12c1 .23 1.01-.68 1.26-1.76zM65.6 83.33l-7.91-1.82a3.17 3.17 0 0 0 2.37 2.59l3.28.75a1.93 1.93 0 0 0 2.26-1.52z" class="cls-3"/></g></svg>