<svg xmlns="http://www.w3.org/2000/svg" id="design" viewBox="0 0 124 124"><defs><style>.cls-1,.cls-15{fill:none;}.cls-2{clip-path:url(#clip-path);}.cls-3{fill:#5e9e74;}.cls-4{clip-path:url(#clip-path-2);}.cls-5{fill:#91c69e;}.cls-6{fill:#163321;}.cls-7{fill:#90a598;}.cls-8{fill:#d4e8dc;}.cls-9{fill:#b0bec5;}.cls-10{fill:#ffbe57;}.cls-11{fill:#ff9d00;}.cls-12{fill:#292929;}.cls-13{fill:#d90a17;}.cls-14{fill:#ab6940;}.cls-15{stroke:#b7b7b7;stroke-miterlimit:10;stroke-width:6px;}.cls-16{fill:#b7b7b7;}</style><clipPath id="clip-path"><path d="M0 0h124v124H0z" class="cls-1"/></clipPath><clipPath id="clip-path-2"><circle id="SVGID" cx="62" cy="62" r="55" class="cls-1"/></clipPath></defs><g class="cls-2"><circle cx="62" cy="62" r="55" class="cls-3"/><g class="cls-4"><path d="M4.41 57.04H119v63.97H4.41z" class="cls-5"/><path d="M-12.37-15.74h69.74V34.4A1.4 1.4 0 0 1 56 35.8h-68.37v-51.54z" class="cls-6"/><path d="M-12.37 33.35h69.74v2.31a1.4 1.4 0 0 1-1.4 1.4h-68.34v-3.71z" class="cls-7"/><rect width="54.53" height="3.64" x="-6.44" y="21.78" class="cls-8" rx="1.82" ry="1.82"/><rect width="54.53" height="3.64" x="-6.44" y="12.99" class="cls-8" rx="1.82" ry="1.82"/><rect width="54.53" height="3.64" x="-4.44" y="-1.79" class="cls-9" rx="1.82" ry="1.82"/><path d="M69.97 63.51l-7.84 2.99-9.22-26.34 7.25-2.08 9.81 25.43z" class="cls-10"/><path d="M51.66 36.76L62.13 66.5l2.66-1.01-11.18-29.48-1.95.75z" class="cls-11"/><path d="M60.57 33.78a5.39 5.39 0 0 1-10.07 3.88z" class="cls-10"/><rect width="12.45" height="3.33" x="50.58" y="29.2" class="cls-10" rx="1.67" ry="1.67" transform="matrix(.36 .93 -.93 .36 65.15 -33.24)"/><rect width="12.45" height="3.33" x="47.47" y="30.4" class="cls-10" rx="1.67" ry="1.67" transform="rotate(68.9 53.7 32.06)"/><rect width="10.2" height="3.33" x="45.63" y="31.95" class="cls-10" rx="1.67" ry="1.67" transform="rotate(68.9 50.73 33.62)"/><path d="M62.922 34.133l-2.95 2.316a1.51 1.51 0 0 1-2.12-.256l-.283-.362a1.51 1.51 0 0 1 .254-2.12l2.95-2.316a1.68 1.68 0 0 1 2.334.302l.075.095a1.68 1.68 0 0 1-.26 2.34z" class="cls-10"/><path d="M60.5 37.82l-1.9-2L63 34a8.47 8.47 0 0 0-2.5 3.82z" class="cls-10"/><path d="M51.55 37.66l-.9.38a4.79 4.79 0 0 0 4.9 3.08 6.3 6.3 0 0 1-4-3.46zM53.49 33.46l-2.63-6.81a1.67 1.67 0 0 0-.36 1.76l1.73 4.49a1 1 0 0 0 1.26.56z" class="cls-11"/><path d="M51.76 38.21l-.35-.91-3.11-8.05a1.67 1.67 0 0 0-.36 1.75l2.56 6.64a1 1 0 0 0 1.26.57zM56.6 32.26L54 25.45a1.67 1.67 0 0 0-.36 1.76l1.73 4.49a1 1 0 0 0 1.23.56z" class="cls-11"/><path d="M101.09 34.21C94 41.29 90.86 35.29 85 37.73A6.75 6.75 0 0 0 81 44v1.37c10.7.9 21.87.5 20.09-11.16z" class="cls-12"/><path d="M106.12 125.3H68.21V78.09a16 16 0 0 1 16-16h5.83a16 16 0 0 1 16 16z" class="cls-13"/><path d="M70.31 60.15l-10.38 4a.39.39 0 0 0-.22.53l5.59 12.57 11.5-7.65-5.92-9.21a.45.45 0 0 0-.57-.24z" class="cls-13"/><circle cx="86.97" cy="52.53" r="15.57" class="cls-12"/><path d="M30.55 102.83H-4a4.87 4.87 0 0 1-4.47-2.95l-8.24-19.18a4.87 4.87 0 0 1 4.47-6.79h51a4.87 4.87 0 0 1 4.47 6.79L35 99.89a4.87 4.87 0 0 1-4.45 2.94z" class="cls-14"/><path d="M13.34 83.72a12.56 12.56 0 0 1 12.55 12.56v31.86H.78V96.28a12.56 12.56 0 0 1 12.56-12.56zM86 83.07a11.8 11.8 0 0 0-11.8 11.8v29.94h23.6V94.87A11.8 11.8 0 0 0 86 83.07z" class="cls-15"/></g><path d="M102.13 101a4.57 4.57 0 0 0 4.2-2.77l7.74-18a4.57 4.57 0 0 0-4.2-6.38H61.94a4.57 4.57 0 0 0-4.2 6.38l7.74 18a4.57 4.57 0 0 0 4.2 2.77z" class="cls-14"/><path d="M77.15 101.1h-6v-6.23a14.8 14.8 0 1 1 29.6 0V101l-6 .25v-6.4a8.8 8.8 0 1 0-17.6 0z" class="cls-16"/></g></svg>