<svg xmlns="http://www.w3.org/2000/svg" id="design" viewBox="0 0 124 124"><defs><style>.cls-1,.cls-11,.cls-9{fill:none;}.cls-2{clip-path:url(#clip-path);}.cls-3{fill:#acc6cc;}.cls-4{fill:#efefef;}.cls-5{fill:#ffbe57;}.cls-6{fill:#ff9d00;}.cls-7{clip-path:url(#clip-path-2);}.cls-8{fill:#789c9e;}.cls-11,.cls-9{stroke:#292929;stroke-linecap:round;}.cls-9{stroke-linejoin:round;stroke-width:1.09px;}.cls-10{fill:#292929;}.cls-11{stroke-miterlimit:10;stroke-width:1.65px;}.cls-12{fill:#d90a17;}</style><clipPath id="clip-path"><path d="M0 0h124v124H0z" class="cls-1"/></clipPath><clipPath id="clip-path-2"><circle id="SVGID" cx="62" cy="62" r="55" class="cls-1"/></clipPath></defs><g class="cls-2"><circle cx="62" cy="62" r="55" class="cls-3"/><path d="M100 37l-4.16 3.79a4.59 4.59 0 0 0 0 7.06l4.16 3.77-5.86 1.79c-3.11.95-4.85 3.63-4.06 6.24l1.48 4.93-6.23-.58c-3.3-.33-6.38 1.38-7.18 4l-1.51 4.92L71.47 70a7.73 7.73 0 0 0-8.66.83l-4.16 3.77-2.91-4.5c-1.54-2.38-5-3.46-8.15-2.52l-5.86 1.78V64.3c0-2.69-2.47-5-5.77-5.29l-6.22-.63 2.92-4.49c1.55-2.38.66-5.32-2.07-6.86l-5.15-2.89 5.16-2.87c2.74-1.52 3.64-4.46 2.1-6.85l-2.9-4.5 6.22-.6c3.3-.32 5.78-2.58 5.79-5.27V19l5.86 1.81c3.11 1 6.61-.11 8.16-2.49l2.92-4.48 4.15 3.8a7.73 7.73 0 0 0 8.65.87l5.16-2.87 1.49 4.93c.79 2.61 3.87 4.34 7.17 4l6.26-.57-1.5 4.92c-.8 2.61.93 5.29 4 6.26z" class="cls-4"/><path d="M59.99 47.434l-3.807 2.79a2 2 0 0 1-2.796-.434l-.27-.37a2 2 0 0 1 .43-2.796l3.81-2.788a2.26 2.26 0 0 1 3.158.488 2.26 2.26 0 0 1-.49 3.16z" class="cls-5"/><path d="M57.34 46.93a7 7 0 0 1-13.84-2.18z" class="cls-5"/><rect width="17" height="4.33" x="46.58" y="38.64" class="cls-5" rx="2.16" ry="2.16" transform="rotate(98.94 55.07 40.8)"/><rect width="17" height="4.33" x="42.3" y="37.97" class="cls-5" rx="2.16" ry="2.16" transform="matrix(-.16 1 -1 -.16 98.34 -3.81)"/><rect width="14.05" height="4.33" x="39.27" y="38.75" class="cls-5" rx="2.16" ry="2.16" transform="rotate(98.94 46.3 40.92)"/><path d="M54.64 51.44l-.83-3.51h5.48a58 58 0 0 0-4.65 3.51z" class="cls-5"/><path d="M50 52.76c-3.3-.52-5.8-4.35-5.33-7.33l-1.26-.16a6.49 6.49 0 0 0 5.4 7.42zM49.6 42l1.6-10.18a2.16 2.16 0 0 0-1.56 1.75l-1.1 7A1.27 1.27 0 0 0 49.6 42z" class="cls-6"/><path d="M44.44 46.91l.2-1.25L46.47 34a2.16 2.16 0 0 0-1.56 1.75l-1.52 9.68a1.27 1.27 0 0 0 1.05 1.48zM53.88 42.64l1.6-10.18a2.16 2.16 0 0 0-1.56 1.75l-1.1 7a1.27 1.27 0 0 0 1.06 1.43z" class="cls-6"/><path d="M81.77 44a7 7 0 1 1-13.63 3.29z" class="cls-5"/><rect width="17" height="4.33" x="68.83" y="37.03" class="cls-5" rx="2.16" ry="2.16" transform="rotate(76.44 77.32 39.2)"/><rect width="17" height="4.33" x="64.62" y="38.05" class="cls-5" rx="2.16" ry="2.16" transform="rotate(76.44 73.12 40.21)"/><rect width="14.05" height="4.33" x="62.23" y="40.5" class="cls-5" rx="2.16" ry="2.16" transform="rotate(76.44 69.26 42.66)"/><path d="M84.76 43.76l-2.954 3.683a2 2 0 0 1-2.812.307l-.358-.287a2 2 0 0 1-.308-2.812l2.954-3.68a2.26 2.26 0 0 1 3.177-.348 2.26 2.26 0 0 1 .3 3.14z" class="cls-5"/><path d="M81 49.19l-2.11-2.93 5.41-1.93a24 24 0 0 0-3.3 4.86z" class="cls-5"/><path d="M79.25 43.41l-3-12.52a2.16 2.16 0 0 1 1.71 1.6l2.36 9.65zM74.54 42.51L72 32a2.16 2.16 0 0 1 1.71 1.6l1.75 7.4a1.27 1.27 0 0 1-.92 1.51zM70.34 43.59l-1.84-7.77a2.16 2.16 0 0 1 1.71 1.6l1.06 4.63a1.27 1.27 0 0 1-.93 1.54z" class="cls-6"/><path d="M10.51 85.81h102.73v34.06H10.51z" class="cls-7 cls-8"/><path d="M29.37 104.13a23 23 0 0 1-17.51-6.75q-.61-.61-1.17-1.26a23.06 23.06 0 1 1 18.67 8z" class="cls-5"/><path d="M5 81.11a23.1 23.1 0 1 0 46.2 0v-1.37a23 23 0 0 0-4.4-12.17q-.29-.4-.6-.79a23.4 23.4 0 0 0-1.77-2A23.1 23.1 0 0 0 5 81.11z" class="cls-1"/><path d="M51.24 74.51a6.05 6.05 0 0 0-5.87 0" class="cls-9"/><circle cx="48.48" cy="81.28" r="2.18" class="cls-10"/><path d="M37.71 74.51a6.05 6.05 0 0 0-5.87 0" class="cls-9"/><circle cx="34.95" cy="81.28" r="2.18" class="cls-10"/><path d="M46.12 89.11a6.12 6.12 0 0 1-8.66 0" class="cls-11"/><path d="M47.45 68.4C41.8 70.77 27.94 71.3 26.2 71c-11.72-2.92.09 27.22-14.34 26.39q-.61-.61-1.17-1.26A23.06 23.06 0 1 1 47.45 68.4z" class="cls-10"/><path d="M49.73 67.47c-.44 4.21-7.94 4.09-17.35 4.09-9.19 0-16.2-3.35-15.76-7.56s8.21-6.85 17.38-5.89 16.17 5.15 15.73 9.36zM122.19 64.59a9.81 9.81 0 0 1-18.57-6.32c0-.15.1-.31.16-.46a9.81 9.81 0 0 1 18.42 6.78z" class="cls-10"/><path d="M116.94 70.18a9.81 9.81 0 0 1-13.32-11.91 15.59 15.59 0 0 1 8.82 4.31 15.82 15.82 0 0 1 4.5 7.6z" class="cls-12"/><path d="M117.87 82.27A23.08 23.08 0 1 1 96 58.07a22.93 22.93 0 0 1 21.87 24.2z" class="cls-5"/><path d="M118 81.11a23.1 23.1 0 1 1-46.2 0v-1.37a23 23 0 0 1 4.37-12.17q.29-.4.6-.79a23.4 23.4 0 0 1 1.77-2A23.1 23.1 0 0 1 118 81.11z" class="cls-1"/><path d="M71.79 74.51a6.05 6.05 0 0 1 5.87 0" class="cls-9"/><circle cx="74.55" cy="81.28" r="2.18" class="cls-10"/><path d="M85.32 74.51a6.05 6.05 0 0 1 5.87 0" class="cls-9"/><circle cx="88.08" cy="81.28" r="2.18" class="cls-10"/><path d="M76.91 89.11a6.12 6.12 0 0 0 8.66 0" class="cls-11"/><path d="M117.87 82.27a22.93 22.93 0 0 1-1.38 6.78c-12.07 3-21.17-28.29-33.19-27.92a23.06 23.06 0 0 1 34.57 21.14z" class="cls-10"/></g></svg>