<svg xmlns="http://www.w3.org/2000/svg" id="design" viewBox="0 0 124 124"><defs><style>.cls-1,.cls-10,.cls-13{fill:none;}.cls-2{fill:#ff9d00;}.cls-3{fill:#292929;}.cls-4{clip-path:url(#clip-path);}.cls-5{fill:#37526b;}.cls-6{fill:#7599ba;}.cls-7{fill:#4c79a5;}.cls-8{clip-path:url(#clip-path-2);}.cls-9{fill:#ffbe57;}.cls-10{stroke:#292929;stroke-linecap:round;stroke-linejoin:round;stroke-width:1.13px;}.cls-11{clip-path:url(#clip-path-3);}.cls-12{fill:#d90a17;}.cls-13{stroke:#d90a17;stroke-miterlimit:10;stroke-width:1.52px;}.cls-14{clip-path:url(#clip-path-4);}.cls-15{clip-path:url(#clip-path-5);}.cls-16{fill:#a60812;}.cls-17{fill:#fff;}</style><clipPath id="clip-path"><path d="M0 0h124v124H0z" class="cls-1"/></clipPath><clipPath id="clip-path-2"><path d="M120.85 75.7a24 24 0 1 1-48 0v-1.42a23.84 23.84 0 0 1 4.54-12.64q.3-.42.62-.82a24.31 24.31 0 0 1 1.84-2.06 24 24 0 0 1 41 16.94z" class="cls-2"/></clipPath><clipPath id="clip-path-3"><path id="_Clipping_Path_" d="M77.31 88A5.34 5.34 0 0 1 88 88z" data-name="&lt;Clipping Path&gt;" class="cls-3"/></clipPath><clipPath id="clip-path-4"><path d="M3.3 75.7a24 24 0 1 0 48 0v-1.42a23.84 23.84 0 0 0-4.54-12.64q-.3-.42-.62-.82a24.31 24.31 0 0 0-1.84-2.06 24 24 0 0 0-41 16.94z" class="cls-2"/></clipPath><clipPath id="clip-path-5"><path id="_Clipping_Path_2" d="M46.84 88a5.34 5.34 0 0 0-10.68 0z" data-name="&lt;Clipping Path&gt;" class="cls-3"/></clipPath></defs><g class="cls-4"><circle cx="61.99" cy="62" r="55" class="cls-5"/><path d="M40.72 46.13L39.19 29l17.22 12.08 5.58-15.09 5.3 14.35 19.39-10.75-6.87 20.59 23.23-3.98-16.71 15.28L104 68l-17.67 6.52L98.37 89l-17.18-3.93 4.47 17.53-17.15-10.26-5.58 20.21-7.46-20.21-18.94 10.94 7.64-17.46L25.61 89l12.03-14.48L19.98 68l17.66-6.52-17.16-18.32 20.24 2.97z" class="cls-6"/><path d="M90.4 67.9l5.89 9.19-9.7 5.02.51 10.9-10.91-.51-3.56 12.43-10.64-8.62-11.27 9.42-2.94-13.23-10.9.51.51-10.9-9.7-5.02 5.89-9.19-5.89-9.19 9.7-5.01-5.22-13.93 17.09 2.96 3.54-9.13 9.19 5.89 9.19-5.89 3.53 10.07 15.68-3.9-3.8 13.93 9.7 5.01-5.89 9.19z" class="cls-6"/><path d="M45.44 52.22L61.99 7.4l16.55 44.82" class="cls-6"/><path d="M73.66 9.3a5.58 5.58 0 0 0-1.66.24 9 9 0 0 0-17.2-2.27 7 7 0 1 0-3.1 13.2h22a5.58 5.58 0 1 0 0-11.17z" class="cls-7"/><path d="M120.85 75.7a24 24 0 1 1-48 0v-1.42a23.84 23.84 0 0 1 4.54-12.64q.3-.42.62-.82a24.31 24.31 0 0 1 1.84-2.06 24 24 0 0 1 41 16.94z" class="cls-2"/><path d="M113.73 71.67a24 24 0 1 1-48 0v-1.42a23.84 23.84 0 0 1 4.59-12.65q.3-.42.62-.82a24.31 24.31 0 0 1 1.84-2.06 24 24 0 0 1 40.95 16.95z" class="cls-8 cls-9"/><path d="M72.63 66.45l6.09 2" class="cls-10"/><circle cx="75.7" cy="75.88" r="2.27" class="cls-3"/><path d="M86.68 68.45l6.1-2" class="cls-10"/><circle cx="89.75" cy="75.88" r="2.27" class="cls-3"/><path id="_Clipping_Path_3" d="M77.31 88A5.34 5.34 0 0 1 88 88z" data-name="&lt;Clipping Path&gt;" class="cls-3"/><path d="M78.28 93.27a7.15 7.15 0 0 1 14.31 0z" class="cls-11 cls-12"/><circle cx="90.39" cy="76.12" r="5.95" class="cls-13"/><circle cx="74.45" cy="76.12" r="5.95" class="cls-13"/><path d="M80.4 76.12h4.04" class="cls-13"/><path d="M3.3 75.7a24 24 0 1 0 48 0v-1.42a23.84 23.84 0 0 0-4.54-12.64q-.3-.42-.62-.82a24.31 24.31 0 0 0-1.84-2.06 24 24 0 0 0-41 16.94z" class="cls-2"/><path d="M60.16 71.67a24 24 0 1 1-48 0v-1.42a23.84 23.84 0 0 1 4.59-12.65q.3-.42.62-.82a24.31 24.31 0 0 1 1.84-2.06 24 24 0 0 1 40.95 16.95z" class="cls-14 cls-9"/><path d="M51.52 68.45l-6.09 2" class="cls-10"/><circle cx="48.45" cy="75.88" r="2.27" class="cls-3"/><path d="M38.27 70.45l-6.1-2" class="cls-10"/><circle cx="35.2" cy="75.88" r="2.27" class="cls-3"/><path id="_Clipping_Path_4" d="M46.84 88a5.34 5.34 0 0 0-10.68 0z" data-name="&lt;Clipping Path&gt;" class="cls-3"/><path d="M45.87 93.27a7.15 7.15 0 0 0-14.31 0z" class="cls-15 cls-12"/><path d="M4.54 50.82L18.35 53c2-6.95 8.41-7.6 15.7-6.43 8.41 1.35 14.45 5.85 12.09 14.3L3.93 54.15a1.69 1.69 0 0 1-1.39-2 1.74 1.74 0 0 1 2-1.33z" class="cls-12"/><path d="M44.83 58.74a4.87 4.87 0 1 0-9.62-1.56z" class="cls-16"/><path d="M70.55 42.26H56.88a.4.4 0 0 0-.4.35l-1.57 13.33a.4.4 0 0 0 .4.45h3.05l-1.84 15.5a.4.4 0 0 0 .74.25l12.18-20.33a.4.4 0 0 0-.34-.61h-3.21l5-8.34a.4.4 0 0 0-.34-.6z" class="cls-17"/></g></svg>