<svg xmlns="http://www.w3.org/2000/svg" id="design" viewBox="0 0 124 124"><defs><style>.cls-1,.cls-12,.cls-13{fill:none;}.cls-2{fill:#576f84;}.cls-3{fill:#ffbe57;}.cls-4{clip-path:url(#clip-path);}.cls-5{clip-path:url(#clip-path-2);}.cls-6{fill:#8698a8;}.cls-7{fill:#cfd8dc;}.cls-8{fill:#292929;}.cls-9{clip-path:url(#clip-path-3);}.cls-10{fill:#d90a17;}.cls-11{clip-path:url(#clip-path-4);}.cls-12,.cls-13{stroke:#292929;stroke-linecap:round;}.cls-12{stroke-linejoin:round;stroke-width:1.67px;}.cls-13{stroke-miterlimit:10;stroke-width:2.54px;}</style><clipPath id="clip-path"><path d="M0 0h124v124H0z" class="cls-1"/></clipPath><clipPath id="clip-path-2"><circle cx="62" cy="62" r="55" class="cls-2"/></clipPath><clipPath id="clip-path-3"><circle id="SVGID" cx="45.19" cy="15.76" r="19.44" class="cls-1" transform="rotate(-22.87 45.19 15.75)"/></clipPath><clipPath id="clip-path-4"><rect width="71.42" height="71.42" x="26.29" y="19.43" class="cls-3" rx="35.71" ry="35.71" transform="rotate(-22.87 62 55.15)"/></clipPath></defs><g class="cls-4"><circle cx="62" cy="62" r="55" class="cls-2"/><path d="M72.37 3.67h48.33V124H72.37z" class="cls-5 cls-6"/><path d="M97.61 55.13a35.57 35.57 0 1 1-71.13 0q0-1.06.06-2.11a35.33 35.33 0 0 1 6.73-18.74q.45-.62.92-1.22A36 36 0 0 1 36.92 30a35.57 35.57 0 0 1 60.69 25.13z" class="cls-7"/><circle cx="46.92" cy="23.12" r="19.44" class="cls-8" transform="rotate(-22.87 46.94 23.11)"/><circle cx="54.05" cy="36.78" r="19.44" class="cls-9 cls-10" transform="rotate(-22.87 54.06 36.77)"/><rect width="71.42" height="71.42" x="26.29" y="19.43" class="cls-3" rx="35.71" ry="35.71" transform="rotate(-22.87 62 55.15)"/><g class="cls-11"><ellipse cx="53.36" cy="33.21" class="cls-8" rx="24.68" ry="15.89" transform="rotate(-22.87 53.37 33.21)"/><ellipse cx="26.02" cy="49.21" class="cls-8" rx="8.6" ry="14.4" transform="rotate(-22.87 26.02 49.21)"/><ellipse cx="83.35" cy="25.43" class="cls-8" rx="8.6" ry="14.02" transform="rotate(-22.87 83.37 25.43)"/></g><path d="M120.38 79.93a3 3 0 0 0-4.07-1.36l-5.9 2.94a2 2 0 0 1-1.55.11L97.7 77.88a4.42 4.42 0 0 0-5.59 2.78l-.07.21-1.47 4.4-1.24 4.41a1.19 1.19 0 0 0 .75 1.5l9.52 3.19a1.19 1.19 0 0 0 1.5-.75l1-3.57a1.37 1.37 0 0 1 1.16-.93l6.1-.65A5 5 0 0 0 111 88l8-4a3 3 0 0 0 1.38-4.07zM4.67 83.21a3 3 0 0 1 4-1.62l6.08 2.56a2 2 0 0 0 1.56 0l10.9-4.44a4.42 4.42 0 0 1 5.75 2.42l.09.21 1.75 4.3L36.28 91a1.19 1.19 0 0 1-.65 1.55l-9.3 3.79a1.19 1.19 0 0 1-1.55-.65l-1.18-3.5a1.37 1.37 0 0 0-1.21-.85L16.25 91a5 5 0 0 1-1.73-.39l-8.23-3.42a3 3 0 0 1-1.62-3.98z" class="cls-3"/><circle cx="57.82" cy="62.47" r="2.17" class="cls-8" transform="rotate(-61.59 57.82 62.46)"/><circle cx="74.92" cy="54.53" r="2.17" class="cls-8" transform="rotate(-61.59 74.92 54.53)"/><path d="M72.37 46.52a9.32 9.32 0 0 0 9 1.08M57.07 53.9a9.32 9.32 0 0 0-7.31 5.31" class="cls-12"/><path d="M66.43 71.71a9.43 9.43 0 0 0 11.87-6.09" class="cls-13"/></g></svg>