<svg xmlns="http://www.w3.org/2000/svg" id="design" viewBox="0 0 124 124"><defs><style>.cls-1,.cls-10,.cls-12{fill:none;}.cls-2{clip-path:url(#clip-path);}.cls-3{fill:#68a4a5;}.cls-4{fill:#d3e1ea;}.cls-5{fill:#292929;}.cls-6{fill:#ffbe57;}.cls-7{fill:#d90a17;}.cls-8{fill:#acc6cc;}.cls-9{fill:#236368;}.cls-10{stroke:#292929;stroke-linejoin:round;stroke-width:0.74px;}.cls-10,.cls-12{stroke-linecap:round;}.cls-11{clip-path:url(#clip-path-2);}.cls-12{stroke:#236368;stroke-miterlimit:10;stroke-width:4.33px;}</style><clipPath id="clip-path"><path d="M0 0h124v124H0z" class="cls-1"/></clipPath><clipPath id="clip-path-2"><path id="SVGID" d="M89.17 71.22a15.62 15.62 0 1 1-31.25 0v-.93a15.52 15.52 0 0 1 3-8.23l.41-.53a15.83 15.83 0 0 1 1.2-1.34 15.62 15.62 0 0 1 26.66 11z" class="cls-1"/></clipPath></defs><g class="cls-2"><circle cx="62" cy="62" r="55" class="cls-3"/><rect width="90.34" height="62.76" x="5.66" y="31.93" class="cls-4" rx="1.42" ry="1.42"/><circle cx="60.45" cy="71.64" r="6.3" class="cls-5"/><circle cx="58.74" cy="78.6" r="4.25" class="cls-5" transform="rotate(-66.53 58.74 78.6)"/><circle cx="61.27" cy="83.75" r="2.7" class="cls-5"/><path d="M89.17 71.22a15.62 15.62 0 1 1-31.25 0v-.93a15.52 15.52 0 0 1 3-8.23l.41-.53a15.83 15.83 0 0 1 1.2-1.34 15.62 15.62 0 0 1 26.66 11z" class="cls-6"/><rect width="75.13" height="9.64" x="13.26" y="39.82" class="cls-7" rx="1.21" ry="1.21"/><path d="M41.82 16.27h15a1 1 0 0 1 1 1v18.16a8.45 8.45 0 0 1-8.45 8.45 8.45 8.45 0 0 1-8.45-8.45V17.22a1 1 0 0 1 .9-.95z" class="cls-8"/><circle cx="49.32" cy="34.45" r="4.37" class="cls-9"/><path d="M89.2 71a15.62 15.62 0 1 1-31.25 0v-.93a15.52 15.52 0 0 1 3-8.23l.41-.53A15.83 15.83 0 0 1 62.54 60 15.62 15.62 0 0 1 89.2 71z" class="cls-1"/><path d="M66.23 69.21a4.09 4.09 0 0 1 4 0M80.92 69.21a4.09 4.09 0 0 0-4 0" class="cls-10"/><circle cx="68.21" cy="74.55" r="1.48" class="cls-5"/><circle cx="78.93" cy="74.55" r="1.48" class="cls-5"/><path d="M77.46 78.81a3.88 3.88 0 0 1-7.77 0z" class="cls-5"/><g class="cls-11"><ellipse cx="73.55" cy="60.7" class="cls-5" rx="10.8" ry="6.95"/><ellipse cx="59.81" cy="62.48" class="cls-5" rx="3.76" ry="6.3"/><ellipse cx="86.97" cy="62.64" class="cls-5" rx="3.76" ry="6.14"/><rect width="31.25" height="31.25" x="57.68" y="55.36" class="cls-1" rx="15.02" ry="15.02"/></g><path d="M15.06 61.8H46.6M15.06 71.43H46.6M15.06 81.05H46.6" class="cls-12"/></g></svg>