<svg xmlns="http://www.w3.org/2000/svg" id="design" viewBox="0 0 124 124"><defs><style>.cls-1,.cls-11,.cls-8,.cls-9{fill:none;}.cls-2{clip-path:url(#clip-path);}.cls-3{clip-path:url(#clip-path-2);}.cls-4{fill:#9abed8;}.cls-5{fill:#ff9d00;}.cls-6{clip-path:url(#clip-path-3);}.cls-7{fill:#efefef;}.cls-8{stroke:#292929;stroke-width:4px;}.cls-11,.cls-8,.cls-9{stroke-linecap:round;}.cls-11,.cls-8{stroke-linejoin:round;}.cls-9{stroke:#d90a17;stroke-miterlimit:10;stroke-width:2.13px;}.cls-10{fill:#ffbe57;}.cls-11{stroke:#7599ba;stroke-width:2.12px;}</style><clipPath id="clip-path"><path d="M0 0h124v124H0z" class="cls-1"/></clipPath><clipPath id="clip-path-2"><circle cx="61.99" cy="62" r="55" class="cls-1"/></clipPath><clipPath id="clip-path-3"><path d="M100.69 54.56v82.7h-77.4v-82.7l29.93-11.74 6.65 14.19.97 2.08-3.09 3.98-5.14 6.62L54 72.14l2.67 4.76 4.94 8.78 1.53 2.72.76-2.3 2.02-6.08L64 76.74l-3.68-6.28.07-.08 6.06-7.29 3.76-4.51 1.65-1.99-2.51-14.21 31.34 12.18z" class="cls-1"/></clipPath></defs><g class="cls-2 cls-3"><circle cx="61.99" cy="62" r="55" class="cls-4"/><rect width="17.82" height="10.78" x="35.74" y="41.7" class="cls-5" rx="5.39" ry="5.39" transform="rotate(-62.04 44.65 47.09)"/><rect width="22.4" height="10.78" x="66.22" y="45.36" class="cls-5" rx="5.39" ry="5.39" transform="rotate(-4.71 77.44 50.8)"/><g class="cls-6"><path d="M100.69 54.56v69.78h-77.4V54.56l29.93-11.74 6.65 14.19.97 2.08-3.09 3.98-5.14 6.62L54 72.14l2.67 4.76 4.94 8.78 1.53 2.72.76-2.3 2.02-6.08L64 76.74l-3.68-6.28.07-.08 6.06-7.29 3.76-4.51 1.65-1.99-2.51-14.21 31.34 12.18z" class="cls-7"/><path d="M89.69 69.1l-19.22-4.97M56.68 76.9L35.1 83.07M89.71 83.1l-29.47-7.28M90.16 111.16l-28.35-2.11-27.24 2.11M89.79 97.11l-27.98-4.63-26.86 4.63" class="cls-8"/><path d="M43.27 66.58a3.7 3.7 0 0 1-2.39 2A2.29 2.29 0 0 1 38 66.14a3.84 3.84 0 0 1 2.81-3.66 2.23 2.23 0 0 1 2.41.89" class="cls-9"/><path d="M47.1 64.12a8.76 8.76 0 0 1-6.41 8.35c-3.57.79-6.47-1.65-6.5-5.47a8.76 8.76 0 0 1 6.41-8.35c3.57-.8 6.48 1.65 6.5 5.47z" class="cls-9"/></g><rect width="17.41" height="10.31" x="18.57" y="46.89" class="cls-10" rx="5.16" ry="5.16" transform="rotate(45 27.27 52.05)"/><rect width="10.31" height="13.19" x="17.68" y="54.36" class="cls-10" rx="5.16" ry="5.16" transform="rotate(-45 22.84 60.95)"/><path d="M28.36 56.15l-8.42-8.42a5.15 5.15 0 0 0 1.17 5.44l5.1 5.1a5.16 5.16 0 0 0 7.29 0s-2.39.63-5.14-2.12zM22.32 63.46L17 58.11a5.15 5.15 0 0 0 1.17 5.44l2 2a5.16 5.16 0 0 0 7.29 0s-2.39.66-5.14-2.09z" class="cls-5"/><rect width="17.41" height="10.31" x="25.1" y="40.33" class="cls-10" rx="5.16" ry="5.16" transform="rotate(45 33.8 45.48)"/><path d="M34.89 49.59l-8.42-8.42a5.15 5.15 0 0 0 1.17 5.44l5.1 5.1a5.16 5.16 0 0 0 7.29 0s-2.39.63-5.14-2.12z" class="cls-5"/><rect width="17.41" height="10.31" x="87.27" y="46.89" class="cls-10" rx="5.16" ry="5.16" transform="rotate(135 95.98 52.04)"/><rect width="13.19" height="10.31" x="94.04" y="55.11" class="cls-10" rx="5.16" ry="5.16" transform="rotate(-45 100.63 60.27)"/><path d="M94.89 56.15l8.42-8.42a5.15 5.15 0 0 1-1.17 5.44L97 58.26a5.16 5.16 0 0 1-7.29 0s2.44.64 5.18-2.11zM101.15 62.78l5.35-5.35a5.15 5.15 0 0 1-1.17 5.44l-2 2a5.16 5.16 0 0 1-7.29 0s2.36.66 5.11-2.09z" class="cls-5"/><rect width="17.41" height="10.31" x="80.85" y="40.33" class="cls-10" rx="5.16" ry="5.16" transform="rotate(135 89.55 45.48)"/><path d="M88.47 49.59l8.42-8.42a5.15 5.15 0 0 1-1.17 5.44l-5.1 5.1a5.16 5.16 0 0 1-7.29 0s2.39.63 5.14-2.12z" class="cls-5"/><path d="M45.15 25.24l4.86 4.12M61.99 27.51v-7.68M78.39 24.89l-4.56 4.26" class="cls-11"/></g></svg>