<svg xmlns="http://www.w3.org/2000/svg" id="design" viewBox="0 0 124 124"><defs><style>.cls-1,.cls-14,.cls-15{fill:none;}.cls-2{fill:#d3dde2;}.cls-3{clip-path:url(#clip-path);}.cls-4{clip-path:url(#clip-path-2);}.cls-5{fill:#b4c2cc;}.cls-6{fill:#91c69e;}.cls-7{fill:#ffbe57;}.cls-8{fill:#408289;}.cls-9{fill:#7599ba;}.cls-10{fill:#ff9d00;}.cls-11{fill:#4c79a5;}.cls-12{fill:#d90a17;}.cls-13{fill:#a60812;}.cls-14,.cls-15{stroke:#292929;stroke-linecap:round;}.cls-14{stroke-linejoin:round;stroke-width:1.01px;}.cls-15{stroke-miterlimit:10;stroke-width:1.53px;}.cls-16{fill:#292929;}</style><clipPath id="clip-path"><path d="M0 0h124v124H0z" class="cls-1"/></clipPath><clipPath id="clip-path-2"><path d="M117 62A55 55 0 1 1 13.82 35.43q.52-.94 1.07-1.85a55.28 55.28 0 0 1 18.67-18.67q.91-.55 1.85-1.07A54.65 54.65 0 0 1 60.92 7h2.14a54.67 54.67 0 0 1 25.5 6.82c.63.35 1.25.7 1.85 1.07a55.28 55.28 0 0 1 18.67 18.67q.55.91 1.07 1.85A54.72 54.72 0 0 1 117 62z" class="cls-2"/></clipPath></defs><g class="cls-3"><path d="M117 62A55 55 0 1 1 13.82 35.43q.52-.94 1.07-1.85a55.28 55.28 0 0 1 18.67-18.67q.91-.55 1.85-1.07A54.65 54.65 0 0 1 60.92 7h2.14a54.67 54.67 0 0 1 25.5 6.82c.63.35 1.25.7 1.85 1.07a55.28 55.28 0 0 1 18.67 18.67q.55.91 1.07 1.85A54.72 54.72 0 0 1 117 62z" class="cls-2"/><path d="M-.01 93.67h124v30.61h-124z" class="cls-4 cls-5"/><path d="M63.06 37.34a24.73 24.73 0 0 1 10.44 2.79l.94.52L86 20.64l-.93-.53a47.77 47.77 0 0 0-22-5.89H62v23.1c.35-.01.7 0 1.06.02z" class="cls-6"/><path d="M75.36 41.2A25.05 25.05 0 0 1 83 48.85q.29.45.56.91l20-11.55-.55-.92a48.25 48.25 0 0 0-16.1-16.11l-.91-.54-11.55 20z" class="cls-7"/><path d="M50.47 40.13a24.69 24.69 0 0 1 10.45-2.79h1.07V14.21h-1.07a47.75 47.75 0 0 0-22 5.89l-.93.52 11.55 20z" class="cls-8"/><path d="M41 48.85a25.05 25.05 0 0 1 7.65-7.65l.91-.55L38 20.64l-.92.55A48.25 48.25 0 0 0 21 37.29l-.55.92 20 11.55q.24-.46.55-.91z" class="cls-9"/><path d="M103.56 38.21l-20 11.55q.27.46.52.94a24.76 24.76 0 0 1 2.82 11.52H110a47.77 47.77 0 0 0-5.9-23.07z" class="cls-10"/><path d="M40.42 49.76l-20-11.55-.53.93A47.77 47.77 0 0 0 14 62.21h23.1a24.76 24.76 0 0 1 2.8-11.51q.25-.48.52-.94z" class="cls-11"/><path d="M89.34 32.53l-29.81 23.8 4.91 5.29 25.91-28a.75.75 0 0 0-1.01-1.09z" class="cls-12"/><circle cx="61.99" cy="58.97" r="6.74" class="cls-13" transform="rotate(-42.91 62 58.97)"/><path d="M114.68 87.79a21.42 21.42 0 1 1-42.84 0v-1.27a21.28 21.28 0 0 1 4.06-11.29q.27-.37.56-.73a21.7 21.7 0 0 1 1.64-1.84 21.42 21.42 0 0 1 36.55 15.13z" class="cls-7"/><path d="M83.43 83.6a5.61 5.61 0 0 1 5.19-1.6M103.1 83.6a5.61 5.61 0 0 0-5.19-1.6" class="cls-14"/><path d="M89.25 96a5.68 5.68 0 0 0 8 0" class="cls-15"/><circle cx="85.92" cy="88.01" r="2.02" class="cls-16"/><circle cx="100.61" cy="88.01" r="2.02" class="cls-16"/><path d="M52.14 87.79a21.42 21.42 0 1 1-42.84 0v-1.27a21.28 21.28 0 0 1 4.06-11.29q.27-.37.56-.73a21.7 21.7 0 0 1 1.64-1.84 21.42 21.42 0 0 1 36.58 15.13z" class="cls-7"/><path d="M26 81.86a5.61 5.61 0 0 1-5.19 1.64M35.48 81.86a5.61 5.61 0 0 0 5.19 1.64" class="cls-14"/><path d="M40.09 88a2 2 0 0 1-4 0zM25.4 88a2 2 0 1 1-4 0z" class="cls-16"/><path d="M34.74 97.31a5.68 5.68 0 0 0-8 0" class="cls-15"/></g></svg>