<svg xmlns="http://www.w3.org/2000/svg" id="design" viewBox="0 0 124 124"><defs><style>.cls-1,.cls-10,.cls-11,.cls-15{fill:none;}.cls-2{fill:#68a4a5;}.cls-3{clip-path:url(#clip-path);}.cls-4{clip-path:url(#clip-path-2);}.cls-5{fill:#408289;}.cls-6{fill:#ffbe57;}.cls-7{fill:#ff9d00;}.cls-8{fill:#d3e1ea;}.cls-9{fill:#fff;}.cls-10,.cls-9{stroke:#d90a17;stroke-width:1.6px;}.cls-10,.cls-11,.cls-9{stroke-linecap:round;stroke-linejoin:round;}.cls-11{stroke:#292929;stroke-width:2px;}.cls-12{mask:url(#mask);}.cls-13{fill:#d90a17;}.cls-14{mask:url(#mask-2);}.cls-15{stroke:#ff9d00;stroke-miterlimit:10;stroke-width:4px;}.cls-16{filter:url(#luminosity-noclip-2);}.cls-17{filter:url(#luminosity-noclip);}</style><clipPath id="clip-path"><path d="M0 0h124v124H0z" class="cls-1"/></clipPath><clipPath id="clip-path-2"><rect width="110" height="110" x="6.99" y="7" class="cls-2" rx="55" ry="55"/></clipPath><filter id="luminosity-noclip" width="629.38" height="3581.74" x="-516.93" y="27.33" filterUnits="userSpaceOnUse" color-interpolation-filters="sRGB"><feFlood flood-color="#fff" result="bg"/><feBlend in="SourceGraphic" in2="bg"/></filter><filter id="luminosity-noclip-2" width="800.93" height="3581.74" x="-766.55" y="27.33" filterUnits="userSpaceOnUse" color-interpolation-filters="sRGB"><feFlood flood-color="#fff" result="bg"/><feBlend in="SourceGraphic" in2="bg"/></filter></defs><g class="cls-3"><rect width="110" height="110" x="6.99" y="7" class="cls-2" rx="55" ry="55"/><path d="M-.01 79.34h124V124h-124z" class="cls-4 cls-5"/><path id="_Path_" d="M83.47 101.31a12.82 12.82 0 0 0-6.34-5.07 12.5 12.5 0 0 1-8.07-11v-1l-.76-9.77L65.18 35h-6.39l-3.08 39.5-.71 9.72v1a12.5 12.5 0 0 1-8.07 11 12.81 12.81 0 0 0-6.33 5.07 1.41 1.41 0 0 0-.14.63c0 2.09 9.68 3.79 21.62 3.79s21.62-1.69 21.62-3.79a1.34 1.34 0 0 0-.23-.61z" data-name="&lt;Path&gt;" class="cls-6"/><path d="M70.5 83.76h-17a.69.69 0 0 1-.68-.8L54 75.5a.69.69 0 0 1 .68-.58h14.6a.69.69 0 0 1 .68.58l1.22 7.5a.69.69 0 0 1-.68.76z" class="cls-7"/><path d="M95.79 33h-1a23.88 23.88 0 0 1-6.1-1.42c-.93-.32-1.85-.67-2.73-1s-1.73-.65-2.58-.94a23.7 23.7 0 0 0-4.86-1.2 12.72 12.72 0 0 0-1.52-.13 9.76 9.76 0 0 0-2.76.38 11.31 11.31 0 0 0-3.43 1.69l-.25.19-.07.05-.07.05-1 .71-4.36-7 1.14-.6a22.8 22.8 0 0 1 2.72-1.22 18.21 18.21 0 0 1 3.93-1 17.23 17.23 0 0 1 2.26-.15 18.6 18.6 0 0 1 4.66.6 30.57 30.57 0 0 1 5.85 2.27c.9.44 1.77.89 2.62 1.33s1.62.84 2.42 1.23a19.37 19.37 0 0 0 4.71 1.7 9.19 9.19 0 0 0 1.11.14h1.22a11.06 11.06 0 0 0 2.38-.28 8.38 8.38 0 0 0 2.15-.81 6.42 6.42 0 0 0 1.77-1.36 6.6 6.6 0 0 0 1.16-1.91 8.25 8.25 0 0 0 .35-1.11 5.46 5.46 0 0 0 .12-.73 1.66 1.66 0 0 1 3.32.17v.16c0 .43-.11.81-.17 1.1a11.45 11.45 0 0 1-.45 1.61 11 11 0 0 1-1.62 2.95 10.51 10.51 0 0 1-2.51 2.31 12.56 12.56 0 0 1-3 1.42 16.36 16.36 0 0 1-3.13.67c-.38.06-.75.08-1.1.1h-.43zM28.19 33h-1.07c-.36 0-.73 0-1.12-.11a16.29 16.29 0 0 1-3.13-.67 12.45 12.45 0 0 1-3-1.42 10.39 10.39 0 0 1-2.5-2.3 10.92 10.92 0 0 1-1.62-2.95 11.47 11.47 0 0 1-.45-1.61c-.07-.35-.13-.71-.17-1.11a1.66 1.66 0 0 1 3.31-.33 5.69 5.69 0 0 0 .12.73 8 8 0 0 0 .35 1.12A6.64 6.64 0 0 0 20 26.23a6.49 6.49 0 0 0 1.71 1.38 8.36 8.36 0 0 0 2.15.81 11.16 11.16 0 0 0 2.39.28h1.27a9.86 9.86 0 0 0 1.11-.14 19.39 19.39 0 0 0 4.71-1.7c.8-.39 1.59-.8 2.43-1.23s1.71-.89 2.61-1.33a30.49 30.49 0 0 1 5.88-2.3 18.54 18.54 0 0 1 4.66-.6 17.23 17.23 0 0 1 2.27.15 19.73 19.73 0 0 1 6.65 2.2l1.14.6-4.4 7.07-1-.8a11.5 11.5 0 0 0-3.77-1.95 9.76 9.76 0 0 0-2.81-.36 12.73 12.73 0 0 0-1.51.09 23.82 23.82 0 0 0-4.86 1.21c-.84.29-1.68.61-2.57.94s-1.8.68-2.74 1A23.71 23.71 0 0 1 29.21 33h-1.02z" class="cls-6"/><path d="M119.12 61.18v11.27a18.24 18.24 0 0 1-36.47 0V61.18a1 1 0 0 1 1-1h34.57a1 1 0 0 1 .9 1z" class="cls-8"/><circle cx="101.23" cy="77.01" r="6.49" class="cls-9" transform="matrix(1 0 0 1 -.49 .64)"/><path d="M103.87 78.5a2.85 2.85 0 1 1 0-3" class="cls-10"/><path d="M90.6 64.13l10.43-35.8" class="cls-11"/><path d="M101.03 28.33l10.43 35.8" class="cls-12 cls-11"/><path d="M119.12 61.18V66H82.65v-4.82a1 1 0 0 1 1-1h34.57a1 1 0 0 1 .9 1z" class="cls-13"/><path d="M12.52 64.13l10.43-35.8" class="cls-11"/><path d="M22.95 28.33l10.43 35.8" class="cls-14 cls-11"/><path d="M41.33 61.18v11.27a18.24 18.24 0 0 1-36.47 0V61.18a1 1 0 0 1 1-1h34.52a1 1 0 0 1 .95 1z" class="cls-8"/><circle cx="23.15" cy="77.01" r="6.49" class="cls-9" transform="matrix(1 0 0 1 -.49 .15)"/><path d="M25.79 78.5a2.85 2.85 0 1 1 0-3" class="cls-10"/><path d="M41.33 61.18V66H4.86v-4.82a1 1 0 0 1 1-1h34.52a1 1 0 0 1 .95 1z" class="cls-13"/><path id="_Path_2" d="M68.14 11.84l-5.21 9.76a1.12 1.12 0 0 1-1.88 0l-5.21-9.76a1.12 1.12 0 0 1 .06-1.29l5.2-6.75a1.12 1.12 0 0 1 1.77 0l5.21 6.75a1.12 1.12 0 0 1 .06 1.29z" data-name="&lt;Path&gt;" class="cls-6"/><circle cx="61.99" cy="28.47" r="6.6" class="cls-15"/><path d="M80.42 98c-3.8 1.08-10.63 1.81-18.43 1.81S47.36 99.12 43.56 98a12.43 12.43 0 0 0-3.05 3.28 1.41 1.41 0 0 0-.14.63c0 2.09 9.68 3.79 21.62 3.79s21.62-1.69 21.62-3.79a1.34 1.34 0 0 0-.14-.63A12.42 12.42 0 0 0 80.42 98z" class="cls-7"/></g></svg>