<?xml version="1.0" encoding="utf-8"?>
<!-- Generator: Adobe Illustrator 16.0.4, SVG Export Plug-In . SVG Version: 6.00 Build 0)  -->
<!DOCTYPE svg PUBLIC "-//W3C//DTD SVG 1.1//EN" "http://www.w3.org/Graphics/SVG/1.1/DTD/svg11.dtd">
<svg version="1.1" id="Layer_1" xmlns="http://www.w3.org/2000/svg" xmlns:xlink="http://www.w3.org/1999/xlink" x="0px" y="0px"
	 width="96px" height="96px" viewBox="0 0 96 96" enable-background="new 0 0 96 96" xml:space="preserve">
<g>
	<g>
		<g>
			<g>
				<g>
					<g>
						<g>
							
								<image overflow="visible" opacity="0.2" enable-background="new    " width="350" height="233" xlink:href="2E0BE20FF08F2933.png"  transform="matrix(0.24 0 0 0.2328 8 20)">
							</image>
							<path fill="#EEEEEE" d="M82,24H62c-1.1,0-2,0.9-2,2v14c0,1.1,0.9,2,2,2h20c1.1,0,2-0.9,2-2V26C84,24.9,83.1,24,82,24z M81,30
								l-9,5.62L63,30v-3l9,5.62L81,27V30z M33,44c5.52,0,10-4.48,10-10s-4.48-10-10-10s-10,4.48-10,10S27.48,44,33,44z M33,48
								c-7,0-21,3.5-21,10.5V66h42v-7.5C54,51.5,40,48,33,48z"/>
						</g>
					</g>
				</g>
			</g>
			<path fill="#FFFFFF" fill-opacity="0.4" d="M33,48c-7,0-21,3.5-21,10.5V59c0-7,14-10.5,21-10.5S54,52,54,59v-0.5
				C54,51.5,40,48,33,48z M33,24.5c5.44,0,9.85,4.35,9.99,9.75c0-0.08,0.01-0.17,0.01-0.25c0-5.52-4.48-10-10-10s-10,4.48-10,10
				c0,0.08,0.01,0.17,0.01,0.25C23.15,28.85,27.56,24.5,33,24.5z M63,30v0.5l9,5.62l9-5.62V30l-9,5.62L63,30z M82,24H62
				c-1.1,0-2,0.9-2,2v0.5c0-1.1,0.9-2,2-2h20c1.1,0,2,0.9,2,2V26C84,24.9,83.1,24,82,24z"/>
			<path fill="#263238" fill-opacity="0.1" d="M81,27.5V27l-9,5.62L63,27v0.5l9,5.62L81,27.5z M33,44.5c5.52,0,10-4.48,10-10
				c0-0.08-0.01-0.17-0.01-0.25C42.85,39.65,38.44,44,33,44s-9.85-4.35-9.99-9.75c0,0.08-0.01,0.17-0.01,0.25
				C23,40.02,27.48,44.5,33,44.5z M12,66.5h42V66H12V66.5z M82,42H62c-1.1,0-2-0.9-2-2v0.5c0,1.1,0.9,2,2,2h20c1.1,0,2-0.9,2-2V40
				C84,41.1,83.1,42,82,42z"/>
		</g>
	</g>
</g>
</svg>
